# xmcd
#
# Track frame offsets: 
#        150
#        21407
#        42465
#        58813
#        78800
#        98658
#        113471
#        134860
#        152124
#        173773
#        189395
#        204780
#
# Disc length: 3066 seconds
#
# Revision: 3
# Processed by: cddbd v1.5.2PL0 Copyright (c) Steve Scherf et al.
# Submitted via: ExactAudioCopy v0.99pb4
#
DISCID=990bf80c
DTITLE=Tommy Engel - Du bes Kölle
DYEAR=2007
DGENRE=Kölsch
TTITLE0=Du bes Kölle
TTITLE1=Mem Finger Üvver de Landkaat
TTITLE2=Minge Vatter
TTITLE3=Nur ne Draum
TTITLE4=Hängematt
TTITLE5=Ich bin keine Engel
TTITLE6=Melote
TTITLE7=Jeck em Rän
TTITLE8=Ich han leever wenn et Sommer es
TTITLE9=Nur die
TTITLE10=Schloof minge Klein
TTITLE11=Verdamp lang her (Live)
EXTD=
EXTT0=
EXTT1=
EXTT2=
EXTT3=
EXTT4=
EXTT5=
EXTT6=
EXTT7=
EXTT8=
EXTT9=
EXTT10=
EXTT11=
PLAYORDER=
